<mxfile host="app.diagrams.net" modified="2023-12-15T03:49:19.772Z" agent="Mozilla/5.0 (Windows NT 10.0; Win64; x64) AppleWebKit/537.36 (KHTML, like Gecko) Chrome/120.0.0.0 Safari/537.36" etag="sH-mmNAufiSZmofRFdPJ" version="22.1.9" type="github">
  <diagram name="第 1 页" id="T1hm3NFdJWtpMFPrzZjp">
    <mxGraphModel dx="970" dy="662" grid="0" gridSize="10" guides="1" tooltips="1" connect="1" arrows="1" fold="1" page="0" pageScale="1" pageWidth="827" pageHeight="1169" math="0" shadow="0">
      <root>
        <mxCell id="0" />
        <mxCell id="1" parent="0" />
        <mxCell id="SM4QAHY1-ri_biB7Se2_-5" value="Service" style="rounded=0;whiteSpace=wrap;html=1;fontSize=16;" vertex="1" parent="1">
          <mxGeometry x="79" y="256" width="120" height="60" as="geometry" />
        </mxCell>
        <mxCell id="SM4QAHY1-ri_biB7Se2_-12" value="MonoBehaviour" style="swimlane;whiteSpace=wrap;html=1;fontSize=16;" vertex="1" parent="1">
          <mxGeometry x="-385" y="119" width="385" height="430" as="geometry" />
        </mxCell>
        <mxCell id="SM4QAHY1-ri_biB7Se2_-7" value="App" style="swimlane;fontStyle=0;childLayout=stackLayout;horizontal=1;startSize=30;horizontalStack=0;resizeParent=1;resizeParentMax=0;resizeLast=0;collapsible=1;marginBottom=0;whiteSpace=wrap;html=1;fontSize=16;" vertex="1" parent="SM4QAHY1-ri_biB7Se2_-12">
          <mxGeometry x="26" y="28" width="140" height="73" as="geometry" />
        </mxCell>
        <mxCell id="SM4QAHY1-ri_biB7Se2_-9" value="负责AppContext生命周期" style="text;strokeColor=none;fillColor=none;align=left;verticalAlign=middle;spacingLeft=4;spacingRight=4;overflow=hidden;points=[[0,0.5],[1,0.5]];portConstraint=eastwest;rotatable=0;whiteSpace=wrap;html=1;fontSize=16;" vertex="1" parent="SM4QAHY1-ri_biB7Se2_-7">
          <mxGeometry y="30" width="140" height="43" as="geometry" />
        </mxCell>
        <mxCell id="SM4QAHY1-ri_biB7Se2_-13" value="AppContext" style="swimlane;fontStyle=0;childLayout=stackLayout;horizontal=1;startSize=30;horizontalStack=0;resizeParent=1;resizeParentMax=0;resizeLast=0;collapsible=1;marginBottom=0;whiteSpace=wrap;html=1;fontSize=16;" vertex="1" parent="SM4QAHY1-ri_biB7Se2_-12">
          <mxGeometry x="26" y="123" width="140" height="260" as="geometry" />
        </mxCell>
        <mxCell id="SM4QAHY1-ri_biB7Se2_-33" value="管理ViewModel实例" style="text;strokeColor=none;fillColor=none;align=left;verticalAlign=middle;spacingLeft=4;spacingRight=4;overflow=hidden;points=[[0,0.5],[1,0.5]];portConstraint=eastwest;rotatable=0;whiteSpace=wrap;html=1;fontSize=16;" vertex="1" parent="SM4QAHY1-ri_biB7Se2_-13">
          <mxGeometry y="30" width="140" height="43" as="geometry" />
        </mxCell>
        <mxCell id="SM4QAHY1-ri_biB7Se2_-14" value="管理Service实例" style="text;strokeColor=none;fillColor=none;align=left;verticalAlign=middle;spacingLeft=4;spacingRight=4;overflow=hidden;points=[[0,0.5],[1,0.5]];portConstraint=eastwest;rotatable=0;whiteSpace=wrap;html=1;fontSize=16;" vertex="1" parent="SM4QAHY1-ri_biB7Se2_-13">
          <mxGeometry y="73" width="140" height="43" as="geometry" />
        </mxCell>
        <mxCell id="SM4QAHY1-ri_biB7Se2_-35" value="实例初始化、获取、销毁" style="text;strokeColor=none;fillColor=none;align=left;verticalAlign=middle;spacingLeft=4;spacingRight=4;overflow=hidden;points=[[0,0.5],[1,0.5]];portConstraint=eastwest;rotatable=0;whiteSpace=wrap;html=1;fontSize=16;" vertex="1" parent="SM4QAHY1-ri_biB7Se2_-13">
          <mxGeometry y="116" width="140" height="43" as="geometry" />
        </mxCell>
        <mxCell id="SM4QAHY1-ri_biB7Se2_-15" value="View/ViewModel持有context后，可以通过resolve获取其他实例" style="text;strokeColor=none;fillColor=none;align=left;verticalAlign=middle;spacingLeft=4;spacingRight=4;overflow=hidden;points=[[0,0.5],[1,0.5]];portConstraint=eastwest;rotatable=0;whiteSpace=wrap;html=1;fontSize=16;" vertex="1" parent="SM4QAHY1-ri_biB7Se2_-13">
          <mxGeometry y="159" width="140" height="101" as="geometry" />
        </mxCell>
        <mxCell id="SM4QAHY1-ri_biB7Se2_-16" value="View" style="swimlane;fontStyle=0;childLayout=stackLayout;horizontal=1;startSize=30;horizontalStack=0;resizeParent=1;resizeParentMax=0;resizeLast=0;collapsible=1;marginBottom=0;whiteSpace=wrap;html=1;fontSize=16;" vertex="1" parent="SM4QAHY1-ri_biB7Se2_-12">
          <mxGeometry x="217" y="28" width="140" height="194" as="geometry" />
        </mxCell>
        <mxCell id="SM4QAHY1-ri_biB7Se2_-17" value="与UIDocument对象对应" style="text;strokeColor=none;fillColor=none;align=left;verticalAlign=middle;spacingLeft=4;spacingRight=4;overflow=hidden;points=[[0,0.5],[1,0.5]];portConstraint=eastwest;rotatable=0;whiteSpace=wrap;html=1;fontSize=16;" vertex="1" parent="SM4QAHY1-ri_biB7Se2_-16">
          <mxGeometry y="30" width="140" height="43" as="geometry" />
        </mxCell>
        <mxCell id="SM4QAHY1-ri_biB7Se2_-18" value="借助Mono生命周期，管理ViewModel，实现UI控件和ViewModel属性绑定&lt;br&gt;" style="text;strokeColor=none;fillColor=none;align=left;verticalAlign=middle;spacingLeft=4;spacingRight=4;overflow=hidden;points=[[0,0.5],[1,0.5]];portConstraint=eastwest;rotatable=0;whiteSpace=wrap;html=1;fontSize=16;" vertex="1" parent="SM4QAHY1-ri_biB7Se2_-16">
          <mxGeometry y="73" width="140" height="121" as="geometry" />
        </mxCell>
        <mxCell id="SM4QAHY1-ri_biB7Se2_-19" value="Use" style="endArrow=open;endSize=12;dashed=1;html=1;rounded=0;fontSize=12;edgeStyle=none;curved=1;exitX=1.01;exitY=0.251;exitDx=0;exitDy=0;exitPerimeter=0;entryX=0;entryY=0.5;entryDx=0;entryDy=0;" edge="1" parent="1" source="SM4QAHY1-ri_biB7Se2_-18">
          <mxGeometry width="160" relative="1" as="geometry">
            <mxPoint x="52" y="211" as="sourcePoint" />
            <mxPoint x="168" y="166" as="targetPoint" />
          </mxGeometry>
        </mxCell>
        <mxCell id="SM4QAHY1-ri_biB7Se2_-20" value="ViewModel" style="swimlane;fontStyle=0;childLayout=stackLayout;horizontal=1;startSize=30;horizontalStack=0;resizeParent=1;resizeParentMax=0;resizeLast=0;collapsible=1;marginBottom=0;whiteSpace=wrap;html=1;fontSize=16;" vertex="1" parent="1">
          <mxGeometry x="204" y="69" width="140" height="191" as="geometry" />
        </mxCell>
        <mxCell id="SM4QAHY1-ri_biB7Se2_-21" value="定义了与UI控件对应的属性" style="text;strokeColor=none;fillColor=none;align=left;verticalAlign=middle;spacingLeft=4;spacingRight=4;overflow=hidden;points=[[0,0.5],[1,0.5]];portConstraint=eastwest;rotatable=0;whiteSpace=wrap;html=1;fontSize=16;" vertex="1" parent="SM4QAHY1-ri_biB7Se2_-20">
          <mxGeometry y="30" width="140" height="43" as="geometry" />
        </mxCell>
        <mxCell id="SM4QAHY1-ri_biB7Se2_-22" value="属性变化触发事件回调" style="text;strokeColor=none;fillColor=none;align=left;verticalAlign=middle;spacingLeft=4;spacingRight=4;overflow=hidden;points=[[0,0.5],[1,0.5]];portConstraint=eastwest;rotatable=0;whiteSpace=wrap;html=1;fontSize=16;" vertex="1" parent="SM4QAHY1-ri_biB7Se2_-20">
          <mxGeometry y="73" width="140" height="51" as="geometry" />
        </mxCell>
        <mxCell id="SM4QAHY1-ri_biB7Se2_-23" value="可根据情况暴露handler给外部实现" style="text;strokeColor=none;fillColor=none;align=left;verticalAlign=middle;spacingLeft=4;spacingRight=4;overflow=hidden;points=[[0,0.5],[1,0.5]];portConstraint=eastwest;rotatable=0;whiteSpace=wrap;html=1;fontSize=16;" vertex="1" parent="SM4QAHY1-ri_biB7Se2_-20">
          <mxGeometry y="124" width="140" height="67" as="geometry" />
        </mxCell>
        <mxCell id="SM4QAHY1-ri_biB7Se2_-24" value="Service" style="swimlane;fontStyle=0;childLayout=stackLayout;horizontal=1;startSize=30;horizontalStack=0;resizeParent=1;resizeParentMax=0;resizeLast=0;collapsible=1;marginBottom=0;whiteSpace=wrap;html=1;fontSize=16;" vertex="1" parent="1">
          <mxGeometry x="76" y="336" width="140" height="191" as="geometry" />
        </mxCell>
        <mxCell id="SM4QAHY1-ri_biB7Se2_-25" value="定义了与UI控件对应的属性" style="text;strokeColor=none;fillColor=none;align=left;verticalAlign=middle;spacingLeft=4;spacingRight=4;overflow=hidden;points=[[0,0.5],[1,0.5]];portConstraint=eastwest;rotatable=0;whiteSpace=wrap;html=1;fontSize=16;" vertex="1" parent="SM4QAHY1-ri_biB7Se2_-24">
          <mxGeometry y="30" width="140" height="43" as="geometry" />
        </mxCell>
        <mxCell id="SM4QAHY1-ri_biB7Se2_-26" value="属性变化触发事件回调" style="text;strokeColor=none;fillColor=none;align=left;verticalAlign=middle;spacingLeft=4;spacingRight=4;overflow=hidden;points=[[0,0.5],[1,0.5]];portConstraint=eastwest;rotatable=0;whiteSpace=wrap;html=1;fontSize=16;" vertex="1" parent="SM4QAHY1-ri_biB7Se2_-24">
          <mxGeometry y="73" width="140" height="51" as="geometry" />
        </mxCell>
        <mxCell id="SM4QAHY1-ri_biB7Se2_-27" value="可根据情况暴露handler给外部实现" style="text;strokeColor=none;fillColor=none;align=left;verticalAlign=middle;spacingLeft=4;spacingRight=4;overflow=hidden;points=[[0,0.5],[1,0.5]];portConstraint=eastwest;rotatable=0;whiteSpace=wrap;html=1;fontSize=16;" vertex="1" parent="SM4QAHY1-ri_biB7Se2_-24">
          <mxGeometry y="124" width="140" height="67" as="geometry" />
        </mxCell>
      </root>
    </mxGraphModel>
  </diagram>
</mxfile>
